<svg xmlns="http://www.w3.org/2000/svg" xmlns:xlink="http://www.w3.org/1999/xlink" width="561" height="731.788" viewBox="0 0 561 731.788">
  <defs>
    <style>
      .cls-1, .cls-8 {
        fill: none;
      }

      .cls-7:hover {
      r: 10;
      }

      .cls-7:hover + .cls-8 {
        r: 10;
      }

      .cls-1, .cls-2, .cls-3, .cls-4, .cls-5 {
        stroke: #707070;
      }

      .cls-2 {
        fill: #ff0505;
      }

      .cls-3 {
        fill: #f7ff05;
      }

      .cls-4 {
        fill: #1f0;
      }

      .cls-5 {
        fill: #fff;
      }

      .cls-6 {
        fill: #707070;
        font-size: 20px;
        font-family: SegoeUI, Segoe UI;
      }

      .cls-7 {
        stroke: none;
      }

      .cls-9 {
        filter: url(#Ellipse_2);
      }
    </style>
    <filter id="Ellipse_2" x="372" y="82.867" width="33" height="33" filterUnits="userSpaceOnUse">
      <feOffset dy="3" input="SourceAlpha"/>
      <feGaussianBlur stdDeviation="3" result="blur"/>
      <feFlood flood-color="#04f615" flood-opacity="0.161"/>
      <feComposite operator="in" in2="blur"/>
      <feComposite in="SourceGraphic"/>
    </filter>
  </defs>
  <g id="Way" transform="translate(-1301.5 -222.133)">
    <line id="Line_1" data-name="Line 1" class="cls-1" x2="104" y2="96" transform="translate(1588.5 222.5)"/>
    <line id="Line_2" data-name="Line 2" class="cls-1" y1="116" x2="76" transform="translate(1616.5 318.5)"/>
    <line id="Line_3" data-name="Line 3" class="cls-1" x1="76" y1="134" transform="translate(1616.5 435.191)"/>
    <line id="Line_4" data-name="Line 4" class="cls-1" y1="184" x2="29" transform="translate(1663.5 569.732)"/>
    <line id="Line_5" data-name="Line 5" class="cls-1" y1="186" x2="195" transform="translate(1468.5 754.421)"/>
    <g id="Ellipse_6" data-name="Ellipse 6" class="cls-2" transform="translate(1655.5 748.422)">
      <circle class="cls-7" cx="7.5" cy="7.5" r="7.5"/>
      <circle class="cls-8" cx="7.5" cy="7.5" r="7"/>
    </g>
    <g id="Ellipse_5" data-name="Ellipse 5" class="cls-2" transform="translate(1685.5 562.92)">
      <circle class="cls-7" cx="7.5" cy="7.5" r="7.5"/>
      <circle class="cls-8" cx="7.5" cy="7.5" r="7"/>
    </g>
    <g id="Ellipse_4" data-name="Ellipse 4" class="cls-3" transform="translate(1643.5 374.411)">
      <circle class="cls-7" cx="7.5" cy="7.5" r="7.5"/>
      <circle class="cls-8" cx="7.5" cy="7.5" r="7"/>
    </g>
    <g id="Ellipse_3" data-name="Ellipse 3" class="cls-2" transform="translate(1610.5 428.557)">
      <circle class="cls-7" cx="7.5" cy="7.5" r="7.5"/>
      <circle class="cls-8" cx="7.5" cy="7.5" r="7"/>
    </g>
    <g class="cls-9" transform="matrix(1, 0, 0, 1, 1301.5, 222.13)">
      <g id="Ellipse_2-2" data-name="Ellipse 2" class="cls-4" transform="translate(381 88.87)">
        <circle class="cls-7" cx="7.5" cy="7.5" r="7.5"/>
        <circle class="cls-8" cx="7.5" cy="7.5" r="7"/>
      </g>
    </g>
    <g id="Finish" transform="translate(1461.5 932.921)">
      <g id="Ellipse_7" data-name="Ellipse 7" class="cls-5">
        <circle class="cls-7" cx="7.5" cy="7.5" r="7.5"/>
        <circle class="cls-8" cx="7.5" cy="7.5" r="7"/>
      </g>
      <path id="Path_1" data-name="Path 1" class="cls-5" d="M1280.5,922.181" transform="translate(-1273 -920)"/>
      <line id="Line_6" data-name="Line 6" class="cls-1" y2="14" transform="translate(7.5 0.5)"/>
      <line id="Line_7" data-name="Line 7" class="cls-1" y2="14" transform="translate(9.5 0.5)"/>
      <line id="Line_8" data-name="Line 8" class="cls-1" y2="12" transform="translate(11.5 1.5)"/>
      <path id="Path_2" data-name="Path 2" class="cls-5" d="M0,8" transform="translate(13.5 3.5)"/>
      <line id="Line_9" data-name="Line 9" class="cls-1" y2="14" transform="translate(5.5 0.5)"/>
      <line id="Line_10" data-name="Line 10" class="cls-1" y2="12" transform="translate(3.5 1.5)"/>
      <line id="Line_11" data-name="Line 11" class="cls-1" y2="12" transform="translate(13.5 4.5) rotate(90)"/>
      <line id="Line_12" data-name="Line 12" class="cls-1" y2="14" transform="translate(14.5 6.5) rotate(90)"/>
      <line id="Line_13" data-name="Line 13" class="cls-1" y2="14" transform="translate(14.5 6.5) rotate(90)"/>
      <line id="Line_14" data-name="Line 14" class="cls-1" y2="14" transform="translate(14.5 8.5) rotate(90)"/>
      <line id="Line_15" data-name="Line 15" class="cls-1" x1="12" transform="translate(1.5 10.5)"/>
      <line id="Line_16" data-name="Line 16" class="cls-1" x1="10" transform="translate(2.5 12.5)"/>
      <line id="Line_17" data-name="Line 17" class="cls-1" x1="10" transform="translate(2.5 2.5)"/>
    </g>
    <text id="Junior_Developer" data-name="Junior Developer" class="cls-6" transform="translate(1706.5 324)"><tspan x="0" y="0">Junior Developer</tspan></text>
    <text id="Middle_Developer" data-name="Middle Developer" class="cls-6" transform="translate(1446.5 440.539)"><tspan x="0" y="0">Middle Developer</tspan></text>
    <text id="I_m_here_" data-name="I&apos;m here
" class="cls-6" transform="translate(1669.5 387.393)"><tspan x="0" y="0">I&apos;m here</tspan><tspan x="0" y="0.1"></tspan></text>
    <text id="Senior_Developer" data-name="Senior Developer" class="cls-6" transform="translate(1710.5 576.914)"><tspan x="0" y="0">Senior Developer</tspan></text>
    <text id="Team_Leader" data-name="Team Leader" class="cls-6" transform="translate(1682.5 762.424)"><tspan x="0" y="0">Team Leader</tspan></text>
    <text id="Project_Manager" data-name="Project Manager" class="cls-6" transform="translate(1301.5 948.921)"><tspan x="0" y="0">Project Manager</tspan></text>
  </g>
</svg>
